<svg width="22" height="21" viewBox="0 0 22 21" fill="none" xmlns="http://www.w3.org/2000/svg">
<path d="M11.3541 5.11111C8.33251 5.11111 5.89525 7.42935 5.89525 10.3034C5.89525 13.1775 8.33251 15.4958 11.3541 15.4958C14.3758 15.4958 16.813 13.1775 16.813 10.3034C16.813 7.42935 14.3758 5.11111 11.3541 5.11111ZM11.3541 13.6791C9.40148 13.6791 7.80515 12.1653 7.80515 10.3034C7.80515 8.44161 9.39673 6.92774 11.3541 6.92774C13.3115 6.92774 14.9031 8.44161 14.9031 10.3034C14.9031 12.1653 13.3068 13.6791 11.3541 13.6791V13.6791ZM18.3096 4.89871C18.3096 5.57204 17.7395 6.10981 17.0363 6.10981C16.3284 6.10981 15.7631 5.56753 15.7631 4.89871C15.7631 4.2299 16.3332 3.68762 17.0363 3.68762C17.7395 3.68762 18.3096 4.2299 18.3096 4.89871ZM21.9251 6.12788C21.8443 4.50556 21.4547 3.06852 20.2052 1.88454C18.9605 0.700564 17.4497 0.330006 15.744 0.248664C13.9862 0.153765 8.71734 0.153765 6.95947 0.248664C5.25862 0.325487 3.74781 0.696045 2.4983 1.88002C1.24879 3.064 0.863959 4.50104 0.778441 6.12336C0.678671 7.79539 0.678671 12.807 0.778441 14.479C0.859208 16.1013 1.24879 17.5384 2.4983 18.7223C3.74781 19.9063 5.25387 20.2769 6.95947 20.3582C8.71734 20.4531 13.9862 20.4531 15.744 20.3582C17.4497 20.2814 18.9605 19.9108 20.2052 18.7223C21.45 17.5384 21.8396 16.1013 21.9251 14.479C22.0249 12.807 22.0249 7.79991 21.9251 6.12788V6.12788ZM19.6541 16.273C19.2835 17.1588 18.5661 17.8411 17.6302 18.1981C16.2286 18.7269 12.903 18.6048 11.3541 18.6048C9.80531 18.6048 6.47487 18.7223 5.07808 18.1981C4.14689 17.8456 3.42949 17.1633 3.05416 16.273C2.4983 14.9399 2.62657 11.7766 2.62657 10.3034C2.62657 8.83024 2.50305 5.66242 3.05416 4.33384C3.42474 3.44812 4.14214 2.76575 5.07808 2.40875C6.47962 1.88002 9.80531 2.00204 11.3541 2.00204C12.903 2.00204 16.2334 1.88454 17.6302 2.40875C18.5614 2.76123 19.2788 3.4436 19.6541 4.33384C20.21 5.66694 20.0817 8.83024 20.0817 10.3034C20.0817 11.7766 20.21 14.9444 19.6541 16.273Z" fill="#545776"/>
</svg>
