<?xml version="1.0" encoding="UTF-8" standalone="no"?>
<svg
   width="24"
   height="20"
   viewBox="0 0 24 20"
   fill="none"
   version="1.1"
   id="svg2411"
   sodipodi:docname="visible-edit.svg"
   inkscape:version="1.1.2 (1:1.1+202202050950+0a00cf5339)"
   xmlns:inkscape="http://www.inkscape.org/namespaces/inkscape"
   xmlns:sodipodi="http://sodipodi.sourceforge.net/DTD/sodipodi-0.dtd"
   xmlns="http://www.w3.org/2000/svg"
   xmlns:svg="http://www.w3.org/2000/svg">
  <defs
     id="defs2415" />
  <sodipodi:namedview
     id="namedview2413"
     pagecolor="#ffffff"
     bordercolor="#666666"
     borderopacity="1.0"
     inkscape:pageshadow="2"
     inkscape:pageopacity="0.0"
     inkscape:pagecheckerboard="0"
     showgrid="false"
     inkscape:zoom="9.0332891"
     inkscape:cx="9.9077976"
     inkscape:cy="14.612618"
     inkscape:window-width="1366"
     inkscape:window-height="683"
     inkscape:window-x="0"
     inkscape:window-y="0"
     inkscape:window-maximized="1"
     inkscape:current-layer="svg2411" />
  <path
     d="M 23.8537,9.75492 C 23.7349,9.55679 21.8091,6.40389 18.3755,4.29867 L 17.5149,3.81059 20.683,0.642578 17.5149,3.81059 C 15.941,2.99285 14.0954,2.42612 12,2.42612 4.61579,2.42612 0.3255,9.45596 0.146211,9.75492 L 0,9.99988 0.146211,10.2448 C 0.26501,10.443 2.19084,13.5959 5.6245,15.7011 l -2.98181,2.9817 2.98181,-2.9817 0.8605,0.488 c 1.57394,0.8178 3.41952,1.3845 5.515,1.3845 7.3842,0 11.6745,-7.0298 11.8537,-7.3288 L 24,9.99983 Z M 7.2102,15.464 C 4.0758937,13.922493 1.65133,10.7875 1.12324,9.99988 1.94472,8.7747 5.90898,3.37986 12,3.37986 c 1.7893,0 3.3934,0.46735 4.7898,1.15593 L 15.3189,6.00671 C 14.4181,5.25667 13.2612,4.80433 12,4.80433 c -2.86431,0 -5.0955112,2.3324387 -5.19502,5.19555 -0.052741,1.517489 0.7651867,3.042758 1.87634,3.99302 z m 7.4299,-8.77854 c 0.777812,0.7184487 1.655303,2.3089954 1.6017,3.31442 C 16.113881,12.399234 14.486753,13.920468 12,14.2417 10.993696,14.371692 9.4132589,13.449656 8.68582,12.6397 Z M 8.68582,12.6397 C 8.10708,11.9145 7.75862,10.9978 7.75862,9.99988 7.75862,7.6608 9.66135,5.75802 12,5.75802 c 0.9981,0 1.9148,0.3486 2.6401,0.92744 z M 12,16.6199 c -1.7893,0 -3.39331,-0.4673 -4.7898,-1.1559 L 8.68132,13.9929 C 9.58212,14.743 10.739,15.1954 12,15.1954 c 2.8648,0 5.1955,-2.3307 5.1955,-5.19552 0,-1.26112 -0.455434,-2.4972374 -1.8766,-3.99317 l 1.4709,-1.47092 c 3.716838,1.9888739 5.5589,4.67647 6.087,5.46409 C 22.0553,11.2251 18.091,16.6199 12,16.6199 Z"
     fill="#607d8b"
     id="path2409"
     sodipodi:nodetypes="cccccscccccccscccccsccsscccsscccssccsccsscccs" />
  <path
     d="M 23.8537,9.75492 C 23.7349,9.55679 21.8091,6.40389 18.3755,4.29867 L 17.5149,3.81059 20.683,0.642578 17.5149,3.81059 C 15.941,2.99285 14.0954,2.42612 12,2.42612 4.61579,2.42612 0.3255,9.45596 0.146211,9.75492 L 0,9.99988 0.146211,10.2448 C 0.26501,10.443 2.19084,13.5959 5.6245,15.7011 l -2.98181,2.9817 2.98181,-2.9817 0.8605,0.488 c 1.57394,0.8178 3.41952,1.3845 5.515,1.3845 7.3842,0 11.6745,-7.0298 11.8537,-7.3288 L 24,9.99983 Z M 7.2102,15.464 C 4.0758937,13.922493 1.65133,10.7875 1.12324,9.99988 1.94472,8.7747 5.90898,3.37986 12,3.37986 c 1.7893,0 3.3934,0.46735 4.7898,1.15593 L 15.3189,6.00671 C 14.4181,5.25667 13.2612,4.80433 12,4.80433 c -2.86431,0 -5.0955112,2.3324387 -5.19502,5.19555 -0.052741,1.517489 0.7651867,3.042758 1.87634,3.99302 z m 7.4299,-8.77854 c 1.896954,1.4002914 1.6017,2.31642 1.6017,3.31442 0,2.33912 -1.91501,4.481479 -4.2418,4.24182 C 11.22631,14.16201 10.429539,14.137646 9.8084863,13.8026 9.2053421,13.477216 9.043155,12.924916 8.68582,12.6397 Z M 8.68582,12.6397 C 8.10708,11.9145 7.75862,10.9978 7.75862,9.99988 7.75862,7.6608 9.66135,5.75802 12,5.75802 c 0.9981,0 1.9148,0.3486 2.6401,0.92744 z M 12,16.6199 c -1.7893,0 -3.39331,-0.4673 -4.7898,-1.1559 l 1.47112,-1.4711 c 0.9008,0.7501 2.062247,1.309721 3.31868,1.2025 2.8648,-0.244475 5.1955,-2.350088 5.1955,-5.19552 0,-1.26112 -0.455434,-2.4972374 -1.8766,-3.99317 l 1.4709,-1.47092 c 3.716838,1.9888739 5.5589,4.67647 6.087,5.46409 C 22.0553,11.2251 18.091,16.6199 12,16.6199 Z"
     fill="#607d8b"
     id="path8103"
     sodipodi:nodetypes="cccccscccccccscccccsccsscccssscccssccsccsscccs" />
</svg>
