<svg width="22" height="21" viewBox="0 0 22 21" fill="none" xmlns="http://www.w3.org/2000/svg">
<path d="M5.31699 20.4294H1.07842V6.90823H5.31699V20.4294ZM3.19542 5.06382C1.84007 5.06382 0.740723 3.95175 0.740723 2.60913C0.740723 1.96422 0.999342 1.34572 1.45969 0.8897C1.92003 0.43368 2.5444 0.17749 3.19542 0.17749C3.84645 0.17749 4.47082 0.43368 4.93116 0.8897C5.39151 1.34572 5.65013 1.96422 5.65013 2.60913C5.65013 3.95175 4.55033 5.06382 3.19542 5.06382ZM21.1806 20.4294H16.9512V13.8474C16.9512 12.2787 16.9192 10.267 14.7474 10.267C12.5437 10.267 12.206 11.9713 12.206 13.7344V20.4294H7.97203V6.90823H12.0372V8.75264H12.0965C12.6624 7.6903 14.0447 6.56918 16.1069 6.56918C20.3966 6.56918 21.1852 9.36744 21.1852 13.002V20.4294H21.1806Z" fill="#545776"/>
</svg>
