<svg width="18" height="18" viewBox="0 0 18 18" fill="none" xmlns="http://www.w3.org/2000/svg">
<g clip-path="url(#clip0_249_10858)">
<path d="M13.2098 8.79079C14.1455 8.90031 14.9927 8.23049 15.1022 7.29466C15.2116 6.35909 14.5419 5.51181 13.6061 5.40235C12.6704 5.29283 11.8231 5.96265 11.7139 6.89841C11.6042 7.83416 12.2741 8.68134 13.2098 8.79079Z" fill="#383B58"/>
<path d="M5.78104 7.40382L8.31839 6.89712L8.86401 7.77464L6.88719 9.6544C7.19243 9.73153 7.48558 9.84634 7.75809 9.99655C7.88879 10.0686 8.01128 10.1518 8.12971 10.2322C8.32048 10.3618 8.49999 10.4865 8.67791 10.5353C8.81862 10.574 9.003 10.5762 9.01471 10.5768C9.26532 10.5747 9.48612 10.505 9.71149 10.358C10.2976 9.97583 11.0171 9.57992 11.9094 9.54072C11.9752 9.53783 12.0418 9.53635 12.1072 9.53635C12.3934 9.53635 12.6733 9.56448 12.941 9.619C12.7573 9.32585 9.48593 5.36153 9.48593 5.36153L9.39971 5.25839C9.1886 5.00748 8.83531 4.90251 8.50957 5.02189L5.42878 6.15187C5.13175 6.26049 4.94991 6.57223 5.0137 6.89195C5.08426 7.24513 5.42782 7.4743 5.78104 7.40382Z" fill="#383B58"/>
<path d="M16.9959 11.3455C16.5759 11.5338 16.2628 11.6106 15.9152 11.6106C15.7782 11.6106 15.6366 11.5983 15.482 11.573C14.9673 11.4812 14.6005 11.184 14.2456 10.8966C14.0274 10.7198 13.8213 10.5528 13.5828 10.4298C13.1512 10.2061 12.6322 10.0879 12.0814 10.0879C12.0243 10.0879 11.9662 10.0892 11.9087 10.0918C11.1557 10.1248 10.545 10.4598 9.99719 10.817C9.67583 11.0266 9.29463 11.1272 8.94868 11.1272C8.84436 11.1272 8.63199 11.1043 8.49418 11.0646C8.2297 10.9883 8.00292 10.8342 7.7836 10.6853C7.67096 10.6088 7.56455 10.5365 7.45703 10.4773C6.99668 10.2235 6.46509 10.0893 5.91977 10.0893H5.90871C5.14525 10.0918 4.45478 10.326 3.91205 10.7663C3.1563 11.3796 2.65755 11.5519 2.51537 11.5762C2.51537 11.5762 2.39611 11.6074 2.14003 11.6074C1.64945 11.6074 1.23947 11.4467 0.827976 11.2678C0.538894 11.142 0.266462 11.0699 0 11.0489C0.0516654 11.0787 0.101126 11.1099 0.149103 11.1428C0.35797 11.2884 0.529884 11.4654 0.696057 11.6366C0.785017 11.7281 0.868997 11.8146 0.958223 11.8967C1.30756 12.2181 2.02856 12.598 2.8584 12.598C3.27948 12.598 3.68691 12.5064 4.06925 12.3258C4.18174 12.2726 4.29127 12.2093 4.40718 12.1424C4.59951 12.0314 4.79929 11.9195 5.02066 11.8449C5.30001 11.7508 5.73364 11.782 5.73364 11.782C6.18323 11.8107 6.51991 12.0232 6.76299 12.205C7.50357 12.759 8.20229 13.0204 8.96191 13.0278L9.00061 13.028C9.52327 13.028 10.0014 12.9273 10.422 12.7286C10.6178 12.636 10.8043 12.4999 11.0018 12.3556C11.3727 12.0846 11.7563 11.8044 12.2503 11.785C12.2797 11.7838 12.3095 11.7832 12.3399 11.7832C12.6104 11.7832 13.0177 11.8302 13.4219 12.0541C13.9085 12.3245 14.4971 12.6008 15.1763 12.6008C15.275 12.6008 15.3757 12.595 15.4757 12.5838C16.1009 12.513 16.6293 12.2825 17.0463 11.8987C17.1357 11.8164 17.2199 11.7296 17.309 11.6378C17.4991 11.442 17.6956 11.2395 17.9438 11.0857C17.9624 11.0741 17.9811 11.0629 18 11.052C17.7 11.0787 17.3822 11.1722 16.9959 11.3455Z" fill="#383B58"/>
</g>
<defs>
<clipPath id="clip0_249_10858">
<rect width="18" height="18" fill="white"/>
</clipPath>
</defs>
</svg>
