<svg width="21" height="19" viewBox="0 0 21 19" fill="none" xmlns="http://www.w3.org/2000/svg">
<path d="M18.5651 4.64802C18.5781 4.85105 18.5781 5.05413 18.5781 5.25717C18.5781 11.45 14.3621 18.5857 6.65648 18.5857C4.28252 18.5857 2.07723 17.817 0.222168 16.4827C0.559463 16.5262 0.88374 16.5407 1.23401 16.5407C3.19281 16.5407 4.996 15.8011 6.43595 14.5393C4.59386 14.4958 3.05014 13.147 2.51826 11.2905C2.77773 11.334 3.03716 11.363 3.30961 11.363C3.6858 11.363 4.06202 11.305 4.41226 11.2035C2.49235 10.7684 1.05237 8.88298 1.05237 6.60597V6.54798C1.61016 6.89606 2.25883 7.1136 2.94632 7.14258C1.81772 6.30137 1.07832 4.86556 1.07832 3.24118C1.07832 2.371 1.28584 1.57332 1.64909 0.877157C3.71171 3.7198 6.81213 5.57619 10.2887 5.77927C10.2239 5.43119 10.1849 5.06864 10.1849 4.70605C10.1849 2.12444 12.053 0.0214844 14.375 0.0214844C15.5814 0.0214844 16.6711 0.587111 17.4365 1.50082C18.3835 1.29778 19.2915 0.906175 20.0958 0.369566C19.7845 1.45734 19.1229 2.37105 18.2538 2.95114C19.097 2.84966 19.9142 2.58855 20.6666 2.226C20.0959 3.15417 19.3824 3.98083 18.5651 4.64802V4.64802Z" fill="#545776"/>
</svg>
