<svg width="18" height="18" viewBox="0 0 18 18" fill="none" xmlns="http://www.w3.org/2000/svg">
<g clip-path="url(#clip0_249_10865)">
<path d="M8.99671 12.7373C8.13641 12.7373 7.43652 13.4349 7.43652 14.292C7.43652 15.1493 8.13641 15.8472 8.99671 15.8472C9.8573 15.8472 10.5572 15.1493 10.5572 14.292C10.5572 13.4349 9.85716 12.7373 8.99671 12.7373Z" fill="#383B58"/>
<path d="M12.8025 10.6185C11.7867 9.60329 10.4346 9.04395 8.99583 9.04395C7.56256 9.04395 6.21418 9.59959 5.19871 10.6084C4.78857 11.0165 4.78786 11.6815 5.197 12.0904C5.39575 12.2894 5.66037 12.3987 5.94203 12.3987C6.22241 12.3987 6.48604 12.29 6.68451 12.0926C7.30248 11.4785 8.12331 11.1402 8.99583 11.1402C9.87161 11.1402 10.6947 11.4806 11.3131 12.0985C11.5119 12.2969 11.7763 12.4065 12.0577 12.4065C12.3384 12.4065 12.6019 12.2978 12.8005 12.1004C13.2112 11.6923 13.2119 11.0276 12.8025 10.6185Z" fill="#383B58"/>
<path d="M17.6928 5.74527C15.3705 3.42873 12.2818 2.15332 8.99615 2.15332C5.71492 2.15332 2.62932 3.42575 0.307779 5.73679C-0.102356 6.14494 -0.10264 6.8099 0.307211 7.21876C0.50582 7.4168 0.770016 7.52568 1.05111 7.52568C1.33205 7.52568 1.59597 7.41722 1.79457 7.21932C3.7189 5.30394 6.27639 4.24886 8.99615 4.24886C11.7199 4.24886 14.2799 5.30607 16.2047 7.22657C16.4033 7.42475 16.6679 7.53406 16.9489 7.53406C17.2297 7.53406 17.4936 7.42503 17.692 7.22742C18.1023 6.81895 18.1027 6.15374 17.6928 5.74527Z" fill="#383B58"/>
<path d="M15.186 8.2429C13.5329 6.59369 11.3348 5.68555 8.99632 5.68555C6.66214 5.68555 4.46722 6.59085 2.81561 8.23424C2.61672 8.43199 2.50726 8.69505 2.50684 8.97515C2.50684 9.25496 2.61586 9.51831 2.81447 9.71635C3.01308 9.91453 3.27742 10.0238 3.55851 10.0238C3.83917 10.0238 4.10309 9.91481 4.30198 9.71748C5.55666 8.46919 7.22389 7.78151 8.99632 7.78151C10.7724 7.78151 12.4419 8.4716 13.6975 9.72415C13.8964 9.92262 14.1606 10.0319 14.4418 10.0319C14.7226 10.0319 14.9867 9.9229 15.185 9.72529C15.3836 9.52753 15.4933 9.26447 15.4935 8.98438C15.4938 8.70428 15.3844 8.44122 15.186 8.2429Z" fill="#383B58"/>
</g>
<defs>
<clipPath id="clip0_249_10865">
<rect width="18" height="18" fill="white"/>
</clipPath>
</defs>
</svg>
